<svg id="visual" viewBox="0 0 960 540" width="960" height="540" xmlns="http://www.w3.org/2000/svg" xmlns:xlink="http://www.w3.org/1999/xlink" version="1.1"><rect x="0" y="0" width="960" height="540" fill="#263e64"></rect><defs><linearGradient id="grad1_0" x1="43.8%" y1="0%" x2="100%" y2="100%"><stop offset="14.444444444444446%" stop-color="#263e64" stop-opacity="1"></stop><stop offset="85.55555555555554%" stop-color="#263e64" stop-opacity="1"></stop></linearGradient></defs><defs><linearGradient id="grad2_0" x1="0%" y1="0%" x2="56.3%" y2="100%"><stop offset="14.444444444444446%" stop-color="#263e64" stop-opacity="1"></stop><stop offset="85.55555555555554%" stop-color="#263e64" stop-opacity="1"></stop></linearGradient></defs><g transform="translate(960, 0)"><path d="M0 486C-71.3 487.5 -142.5 488.9 -186 449C-229.4 409.1 -245.1 327.8 -276.5 276.5C-307.9 225.1 -355.1 203.7 -392.6 162.6C-430.2 121.5 -458.1 60.8 -486 0L0 0Z" fill="#4e48ff"></path></g><g transform="translate(0, 540)"><path d="M0 -486C62.3 -455.8 124.5 -425.6 157.7 -380.6C190.8 -335.7 194.9 -275.9 247.5 -247.5C300.1 -219.1 401.2 -222 449 -186C496.8 -150 491.4 -75 486 0L0 0Z" fill="#4e48ff"></path></g></svg>