<svg id="visual" viewBox="0 0 900 600" width="900" height="600" xmlns="http://www.w3.org/2000/svg" xmlns:xlink="http://www.w3.org/1999/xlink" version="1.1"><rect x="0" y="0" width="900" height="600" fill="#001220"></rect><defs><linearGradient id="grad1_0" x1="33.3%" y1="0%" x2="100%" y2="100%"><stop offset="20%" stop-color="#001220" stop-opacity="1"></stop><stop offset="80%" stop-color="#001220" stop-opacity="1"></stop></linearGradient></defs><defs><linearGradient id="grad2_0" x1="0%" y1="0%" x2="66.7%" y2="100%"><stop offset="20%" stop-color="#001220" stop-opacity="1"></stop><stop offset="80%" stop-color="#001220" stop-opacity="1"></stop></linearGradient></defs><g transform="translate(900, 0)"><path d="M0 486.7C-57.7 491.2 -115.4 495.6 -150.4 462.9C-185.4 430.3 -197.6 360.5 -239.2 329.3C-280.9 298 -351.9 305.2 -381 276.8C-410.2 248.5 -397.4 184.6 -408 132.6C-418.6 80.5 -452.7 40.3 -486.7 0L0 0Z" fill="#FBAE3C"></path></g><g transform="translate(0, 600)"><path d="M0 -486.7C40.1 -453.9 80.2 -421.1 134.4 -413.7C188.7 -406.3 257.1 -424.5 286.1 -393.8C315.1 -363.1 304.6 -283.6 325.2 -236.3C345.9 -188.9 397.8 -173.7 429.9 -139.7C462 -105.6 474.4 -52.8 486.7 0L0 0Z" fill="#FBAE3C"></path></g></svg>