<svg id="visual" viewBox="0 0 960 540" width="960" height="540" xmlns="http://www.w3.org/2000/svg" xmlns:xlink="http://www.w3.org/1999/xlink" version="1.1"><rect x="0" y="0" width="960" height="540" fill="#001220"></rect><path d="M0 376L16 373C32 370 64 364 96 359.3C128 354.7 160 351.3 192 350.7C224 350 256 352 288 357.2C320 362.3 352 370.7 384 367.7C416 364.7 448 350.3 480 351.2C512 352 544 368 576 382C608 396 640 408 672 413.5C704 419 736 418 768 406.7C800 395.3 832 373.7 864 362C896 350.3 928 348.7 944 347.8L960 347L960 541L944 541C928 541 896 541 864 541C832 541 800 541 768 541C736 541 704 541 672 541C640 541 608 541 576 541C544 541 512 541 480 541C448 541 416 541 384 541C352 541 320 541 288 541C256 541 224 541 192 541C160 541 128 541 96 541C64 541 32 541 16 541L0 541Z" fill="#fa7268"></path><path d="M0 403L16 404.2C32 405.3 64 407.7 96 404.8C128 402 160 394 192 392.8C224 391.7 256 397.3 288 401.5C320 405.7 352 408.3 384 410.8C416 413.3 448 415.7 480 414.8C512 414 544 410 576 412C608 414 640 422 672 416.8C704 411.7 736 393.3 768 389.3C800 385.3 832 395.7 864 402C896 408.3 928 410.7 944 411.8L960 413L960 541L944 541C928 541 896 541 864 541C832 541 800 541 768 541C736 541 704 541 672 541C640 541 608 541 576 541C544 541 512 541 480 541C448 541 416 541 384 541C352 541 320 541 288 541C256 541 224 541 192 541C160 541 128 541 96 541C64 541 32 541 16 541L0 541Z" fill="#ef5f67"></path><path d="M0 426L16 431.5C32 437 64 448 96 448.8C128 449.7 160 440.3 192 431.8C224 423.3 256 415.7 288 419.8C320 424 352 440 384 446.7C416 453.3 448 450.7 480 442.3C512 434 544 420 576 416.5C608 413 640 420 672 426.7C704 433.3 736 439.7 768 445.8C800 452 832 458 864 453.2C896 448.3 928 432.7 944 424.8L960 417L960 541L944 541C928 541 896 541 864 541C832 541 800 541 768 541C736 541 704 541 672 541C640 541 608 541 576 541C544 541 512 541 480 541C448 541 416 541 384 541C352 541 320 541 288 541C256 541 224 541 192 541C160 541 128 541 96 541C64 541 32 541 16 541L0 541Z" fill="#e34c67"></path><path d="M0 451L16 454C32 457 64 463 96 468.8C128 474.7 160 480.3 192 479.7C224 479 256 472 288 464.5C320 457 352 449 384 448.8C416 448.7 448 456.3 480 456.7C512 457 544 450 576 451.5C608 453 640 463 672 467.5C704 472 736 471 768 472.5C800 474 832 478 864 475.2C896 472.3 928 462.7 944 457.8L960 453L960 541L944 541C928 541 896 541 864 541C832 541 800 541 768 541C736 541 704 541 672 541C640 541 608 541 576 541C544 541 512 541 480 541C448 541 416 541 384 541C352 541 320 541 288 541C256 541 224 541 192 541C160 541 128 541 96 541C64 541 32 541 16 541L0 541Z" fill="#d53867"></path><path d="M0 486L16 485.2C32 484.3 64 482.7 96 483.2C128 483.7 160 486.3 192 490.2C224 494 256 499 288 501.8C320 504.7 352 505.3 384 502.2C416 499 448 492 480 490C512 488 544 491 576 492.7C608 494.3 640 494.7 672 493.3C704 492 736 489 768 485.8C800 482.7 832 479.3 864 483C896 486.7 928 497.3 944 502.7L960 508L960 541L944 541C928 541 896 541 864 541C832 541 800 541 768 541C736 541 704 541 672 541C640 541 608 541 576 541C544 541 512 541 480 541C448 541 416 541 384 541C352 541 320 541 288 541C256 541 224 541 192 541C160 541 128 541 96 541C64 541 32 541 16 541L0 541Z" fill="#c62368"></path></svg>