<svg id="visual" viewBox="0 0 960 540" width="960" height="540" xmlns="http://www.w3.org/2000/svg" xmlns:xlink="http://www.w3.org/1999/xlink" version="1.1"><g stroke-width="1" stroke-linejoin="bevel"><path d="M424.7 263L437.7 321L559.3 293Z" fill="#081a28" stroke="#081a28"></path><path d="M437.7 321L505.3 352L559.3 293Z" fill="#19435d" stroke="#19435d"></path><path d="M559.3 293L521.3 178L424.7 263Z" fill="#081a28" stroke="#081a28"></path><path d="M521.3 178L411.7 161L424.7 263Z" fill="#00101c" stroke="#00101c"></path><path d="M455.7 445L539.3 415L505.3 352Z" fill="#15384f" stroke="#15384f"></path><path d="M505.3 352L539.3 415L559.3 293Z" fill="#081a28" stroke="#081a28"></path><path d="M657 231L624 204L559.3 293Z" fill="#112e42" stroke="#112e42"></path><path d="M559.3 293L624 204L521.3 178Z" fill="#277297" stroke="#277297"></path><path d="M308 361L455.7 445L437.7 321Z" fill="#246688" stroke="#246688"></path><path d="M437.7 321L455.7 445L505.3 352Z" fill="#081a28" stroke="#081a28"></path><path d="M655 338L657 231L559.3 293Z" fill="#205a7a" stroke="#205a7a"></path><path d="M539.3 415L655 338L559.3 293Z" fill="#081a28" stroke="#081a28"></path><path d="M294 239L308 361L424.7 263Z" fill="#19435d" stroke="#19435d"></path><path d="M424.7 263L308 361L437.7 321Z" fill="#112e42" stroke="#112e42"></path><path d="M411.7 161L294 239L424.7 263Z" fill="#277297" stroke="#277297"></path><path d="M403.7 71L339 142L411.7 161Z" fill="#277297" stroke="#277297"></path><path d="M411.7 161L339 142L294 239Z" fill="#205a7a" stroke="#205a7a"></path><path d="M531.3 50L403.7 71L411.7 161Z" fill="#081a28" stroke="#081a28"></path><path d="M531.3 50L411.7 161L521.3 178Z" fill="#00101c" stroke="#00101c"></path><path d="M653 91L521.3 178L624 204Z" fill="#112e42" stroke="#112e42"></path><path d="M653 91L531.3 50L521.3 178Z" fill="#112e42" stroke="#112e42"></path><path d="M214.3 391L308 425L308 361Z" fill="#277297" stroke="#277297"></path><path d="M308 361L308 425L455.7 445Z" fill="#15384f" stroke="#15384f"></path><path d="M539.3 415L657 452L655 338Z" fill="#277297" stroke="#277297"></path><path d="M655 338L729.7 247L657 231Z" fill="#297ea6" stroke="#297ea6"></path><path d="M605 540L657 452L539.3 415Z" fill="#0c2435" stroke="#0c2435"></path><path d="M708.7 385L729.7 247L655 338Z" fill="#205a7a" stroke="#205a7a"></path><path d="M723.7 190L653 91L624 204Z" fill="#1d4e6b" stroke="#1d4e6b"></path><path d="M657 452L708.7 385L655 338Z" fill="#1d4e6b" stroke="#1d4e6b"></path><path d="M403.7 71L307 119L339 142Z" fill="#277297" stroke="#277297"></path><path d="M339 142L242.3 148L294 239Z" fill="#1d4e6b" stroke="#1d4e6b"></path><path d="M723.7 190L624 204L657 231Z" fill="#277297" stroke="#277297"></path><path d="M729.7 247L723.7 190L657 231Z" fill="#00101c" stroke="#00101c"></path><path d="M429.7 540L505.3 540L455.7 445Z" fill="#081a28" stroke="#081a28"></path><path d="M455.7 445L505.3 540L539.3 415Z" fill="#1d4e6b" stroke="#1d4e6b"></path><path d="M358 540L429.7 540L455.7 445Z" fill="#246688" stroke="#246688"></path><path d="M307 119L242.3 148L339 142Z" fill="#205a7a" stroke="#205a7a"></path><path d="M294 239L201.3 260L308 361Z" fill="#205a7a" stroke="#205a7a"></path><path d="M226.3 77L242.3 148L307 119Z" fill="#15384f" stroke="#15384f"></path><path d="M605 0L550.3 0L531.3 50Z" fill="#081a28" stroke="#081a28"></path><path d="M531.3 50L420.7 0L403.7 71Z" fill="#00101c" stroke="#00101c"></path><path d="M403.7 71L316 0L307 119Z" fill="#277297" stroke="#277297"></path><path d="M505.3 540L605 540L539.3 415Z" fill="#205a7a" stroke="#205a7a"></path><path d="M657 452L755.7 428L708.7 385Z" fill="#15384f" stroke="#15384f"></path><path d="M550.3 0L420.7 0L531.3 50Z" fill="#19435d" stroke="#19435d"></path><path d="M242.3 148L201.3 260L294 239Z" fill="#15384f" stroke="#15384f"></path><path d="M308 425L358 540L455.7 445Z" fill="#112e42" stroke="#112e42"></path><path d="M213.3 447L358 540L308 425Z" fill="#00101c" stroke="#00101c"></path><path d="M201.3 260L214.3 391L308 361Z" fill="#1d4e6b" stroke="#1d4e6b"></path><path d="M653 91L605 0L531.3 50Z" fill="#1d4e6b" stroke="#1d4e6b"></path><path d="M706.7 0L605 0L653 91Z" fill="#246688" stroke="#246688"></path><path d="M726.7 540L755.7 428L657 452Z" fill="#205a7a" stroke="#205a7a"></path><path d="M708.7 385L865.3 360L729.7 247Z" fill="#1d4e6b" stroke="#1d4e6b"></path><path d="M813.3 95L727.7 72L723.7 190Z" fill="#0c2435" stroke="#0c2435"></path><path d="M848.3 201L723.7 190L729.7 247Z" fill="#277297" stroke="#277297"></path><path d="M723.7 190L727.7 72L653 91Z" fill="#205a7a" stroke="#205a7a"></path><path d="M140.7 461L213.3 447L214.3 391Z" fill="#1d4e6b" stroke="#1d4e6b"></path><path d="M214.3 391L213.3 447L308 425Z" fill="#205a7a" stroke="#205a7a"></path><path d="M420.7 0L316 0L403.7 71Z" fill="#297ea6" stroke="#297ea6"></path><path d="M105.7 145L116.7 259L201.3 260Z" fill="#15384f" stroke="#15384f"></path><path d="M316 0L226.3 77L307 119Z" fill="#205a7a" stroke="#205a7a"></path><path d="M605 540L726.7 540L657 452Z" fill="#19435d" stroke="#19435d"></path><path d="M727.7 72L706.7 0L653 91Z" fill="#081a28" stroke="#081a28"></path><path d="M865.3 360L708.7 385L755.7 428Z" fill="#0c2435" stroke="#0c2435"></path><path d="M888.3 275L848.3 201L729.7 247Z" fill="#19435d" stroke="#19435d"></path><path d="M727.7 72L857.3 0L706.7 0Z" fill="#081a28" stroke="#081a28"></path><path d="M848.3 201L813.3 95L723.7 190Z" fill="#297ea6" stroke="#297ea6"></path><path d="M105.7 145L201.3 260L242.3 148Z" fill="#1d4e6b" stroke="#1d4e6b"></path><path d="M201.3 260L116.7 259L214.3 391Z" fill="#00101c" stroke="#00101c"></path><path d="M892.3 466L865.3 360L755.7 428Z" fill="#246688" stroke="#246688"></path><path d="M316 0L213.3 0L226.3 77Z" fill="#15384f" stroke="#15384f"></path><path d="M226.3 77L132.7 116L242.3 148Z" fill="#297ea6" stroke="#297ea6"></path><path d="M213.3 0L132.7 116L226.3 77Z" fill="#0c2435" stroke="#0c2435"></path><path d="M213.3 447L195.3 540L358 540Z" fill="#112e42" stroke="#112e42"></path><path d="M140.7 461L195.3 540L213.3 447Z" fill="#112e42" stroke="#112e42"></path><path d="M69.7 324L140.7 461L214.3 391Z" fill="#1d4e6b" stroke="#1d4e6b"></path><path d="M865.3 360L888.3 275L729.7 247Z" fill="#112e42" stroke="#112e42"></path><path d="M960 120L857.3 0L813.3 95Z" fill="#00101c" stroke="#00101c"></path><path d="M132.7 116L105.7 145L242.3 148Z" fill="#15384f" stroke="#15384f"></path><path d="M0 72L105.7 145L132.7 116Z" fill="#205a7a" stroke="#205a7a"></path><path d="M116.7 259L69.7 324L214.3 391Z" fill="#112e42" stroke="#112e42"></path><path d="M0 256L69.7 324L116.7 259Z" fill="#1d4e6b" stroke="#1d4e6b"></path><path d="M0 540L140.7 540L140.7 461Z" fill="#277297" stroke="#277297"></path><path d="M140.7 461L140.7 540L195.3 540Z" fill="#112e42" stroke="#112e42"></path><path d="M859.3 540L892.3 466L755.7 428Z" fill="#112e42" stroke="#112e42"></path><path d="M960 346L960 232L888.3 275Z" fill="#277297" stroke="#277297"></path><path d="M726.7 540L859.3 540L755.7 428Z" fill="#0c2435" stroke="#0c2435"></path><path d="M960 120L813.3 95L848.3 201Z" fill="#297ea6" stroke="#297ea6"></path><path d="M813.3 95L857.3 0L727.7 72Z" fill="#081a28" stroke="#081a28"></path><path d="M960 346L888.3 275L865.3 360Z" fill="#19435d" stroke="#19435d"></path><path d="M888.3 275L960 232L848.3 201Z" fill="#112e42" stroke="#112e42"></path><path d="M960 423L960 346L865.3 360Z" fill="#15384f" stroke="#15384f"></path><path d="M960 423L865.3 360L892.3 466Z" fill="#112e42" stroke="#112e42"></path><path d="M960 232L960 171L848.3 201Z" fill="#297ea6" stroke="#297ea6"></path><path d="M213.3 0L97.7 0L132.7 116Z" fill="#246688" stroke="#246688"></path><path d="M105.7 145L0 256L116.7 259Z" fill="#277297" stroke="#277297"></path><path d="M960 540L960 423L892.3 466Z" fill="#277297" stroke="#277297"></path><path d="M0 147L0 256L105.7 145Z" fill="#081a28" stroke="#081a28"></path><path d="M69.7 324L0 418L140.7 461Z" fill="#277297" stroke="#277297"></path><path d="M960 171L960 120L848.3 201Z" fill="#081a28" stroke="#081a28"></path><path d="M0 256L0 386L69.7 324Z" fill="#1d4e6b" stroke="#1d4e6b"></path><path d="M0 72L0 147L105.7 145Z" fill="#081a28" stroke="#081a28"></path><path d="M0 386L0 418L69.7 324Z" fill="#277297" stroke="#277297"></path><path d="M97.7 0L0 72L132.7 116Z" fill="#081a28" stroke="#081a28"></path><path d="M859.3 540L960 540L892.3 466Z" fill="#205a7a" stroke="#205a7a"></path><path d="M960 120L960 0L857.3 0Z" fill="#19435d" stroke="#19435d"></path><path d="M0 418L0 540L140.7 461Z" fill="#297ea6" stroke="#297ea6"></path><path d="M97.7 0L0 0L0 72Z" fill="#205a7a" stroke="#205a7a"></path></g></svg>